<?xml version="1.0" standalone="no"?>
<!DOCTYPE svg PUBLIC "-//W3C//DTD SVG 20010904//EN"
 "http://www.w3.org/TR/2001/REC-SVG-20010904/DTD/svg10.dtd">
<svg version="1.0" xmlns="http://www.w3.org/2000/svg"
 width="225.000000pt" height="225.000000pt" viewBox="0 0 225.000000 225.000000"
 preserveAspectRatio="xMidYMid meet">
<metadata>
Created by potrace 1.10, written by Peter Selinger 2001-2011
</metadata>
<g transform="translate(0.000000,225.000000) scale(0.100000,-0.100000)"
fill="#000000" stroke="none">
<path d="M984 1925 c-12 -30 2 -125 22 -152 36 -47 70 -66 118 -65 89 1 139
62 134 165 -3 59 -4 62 -29 65 -26 3 -27 2 -31 -64 -5 -75 -27 -104 -77 -104
-45 0 -69 36 -73 105 -3 57 -4 60 -31 63 -18 2 -29 -2 -33 -13z m70 -140 c36
-38 66 -44 111 -23 35 16 55 57 55 113 0 25 5 45 10 45 15 0 12 -98 -5 -130
-21 -42 -53 -60 -103 -60 -37 0 -50 6 -78 34 -33 33 -37 47 -36 121 1 50 5 43
9 -12 3 -43 10 -59 37 -88z"/>
<path d="M827 1852 c-24 -26 -22 -30 28 -76 51 -48 60 -91 25 -126 -30 -30
-71 -25 -125 17 l-48 36 -19 -22 c-10 -13 -18 -26 -18 -30 1 -14 91 -73 126
-82 29 -9 46 -7 80 6 103 39 121 157 37 236 -64 59 -68 61 -86 41z m65 -49
c20 -21 41 -49 46 -63 14 -38 3 -87 -28 -120 -23 -25 -36 -30 -75 -30 -50 0
-89 16 -119 49 -31 34 -11 35 35 2 56 -41 105 -42 142 -3 42 43 37 90 -13 143
-39 41 -49 59 -32 59 4 0 24 -17 44 -37z"/>
<path d="M1342 1822 c-28 -26 -54 -60 -57 -75 -29 -115 73 -214 179 -173 23 9
57 29 76 45 31 27 33 31 22 55 -6 14 -16 26 -21 26 -5 0 -28 -16 -52 -36 -52
-44 -100 -45 -132 -2 -27 36 -17 66 39 121 47 44 50 58 15 76 -14 8 -28 1 -69
-37z m24 -42 c-57 -60 -61 -97 -17 -141 44 -43 101 -39 158 13 12 11 26 17 32
13 7 -4 -5 -20 -30 -41 -35 -29 -49 -34 -91 -34 -45 0 -54 4 -84 36 -52 55
-41 125 29 186 50 44 52 20 3 -32z"/>
<path d="M675 1511 c-26 -5 -30 -11 -33 -42 l-3 -36 62 15 c54 14 65 14 88 1
14 -8 30 -27 36 -42 16 -46 -10 -78 -80 -102 -62 -21 -78 -42 -51 -64 13 -11
26 -11 67 -1 94 23 147 95 129 175 -19 86 -99 121 -215 96z m135 -26 c65 -34
82 -118 34 -174 -28 -34 -121 -68 -138 -51 -6 6 -4 11 5 13 83 25 103 34 120
55 21 27 25 72 9 103 -24 44 -97 59 -165 32 -13 -4 -16 -2 -13 8 9 28 102 38
148 14z"/>
<path d="M1415 1500 c-60 -39 -80 -111 -49 -176 20 -43 55 -68 116 -82 62 -16
63 -16 76 13 10 21 9 26 -8 35 -10 5 -26 10 -35 10 -33 0 -83 32 -95 61 -10
24 -10 33 4 54 28 43 56 50 125 32 l61 -15 0 34 c0 30 -4 34 -37 43 -60 17
-124 13 -158 -9z m168 -19 c19 -19 -1 -23 -45 -9 -35 12 -48 13 -73 2 -100
-41 -88 -155 19 -186 74 -21 79 -44 6 -26 -61 15 -90 36 -107 76 -15 35 -10
86 10 112 30 40 61 52 121 47 32 -3 63 -10 69 -16z"/>
<path d="M905 1256 c-37 -17 -56 -38 -88 -98 -23 -44 -24 -48 -8 -62 28 -25
39 -19 66 34 36 72 92 93 135 50 26 -26 26 -70 -1 -121 -22 -44 -14 -69 23
-69 28 0 72 102 65 153 -13 94 -109 151 -192 113z m99 -20 c46 -19 66 -52 66
-108 0 -45 -26 -117 -42 -118 -10 0 -10 24 -1 34 9 8 14 29 20 81 4 34 0 45
-23 68 -15 15 -38 30 -50 33 -31 8 -88 -28 -104 -66 -13 -31 -37 -56 -46 -47
-8 7 30 79 53 99 19 18 59 36 81 37 7 1 28 -5 46 -13z"/>
<path d="M1223 1249 c-72 -36 -91 -112 -52 -208 18 -41 26 -51 46 -51 34 0 39
26 14 76 -26 55 -26 74 0 108 43 54 112 25 148 -63 15 -34 27 -38 55 -18 17
13 16 17 -13 76 -26 51 -39 66 -74 81 -54 25 -73 25 -124 -1z m127 -28 c29
-21 70 -78 70 -97 0 -24 -20 -15 -31 13 -14 39 -38 63 -77 80 -28 11 -36 11
-62 -2 -56 -29 -74 -82 -47 -135 22 -43 26 -59 17 -65 -15 -9 -50 71 -50 113
0 46 29 88 74 108 36 16 70 11 106 -15z"/>
<path d="M170 780 c-41 -41 -39 -129 5 -167 36 -32 95 -31 132 1 24 21 28 31
28 79 0 76 -28 107 -97 107 -34 0 -54 -6 -68 -20z m104 -26 c10 -9 16 -33 16
-59 0 -36 -5 -48 -25 -61 -23 -15 -27 -15 -50 0 -47 31 -28 136 25 136 10 0
26 -7 34 -16z"/>
<path d="M378 695 c-3 -103 -3 -105 20 -105 19 0 22 5 22 40 0 39 1 40 34 40
40 0 66 28 66 72 0 37 -33 58 -92 58 l-47 0 -3 -105z m88 61 c15 -12 17 -18 8
-33 -6 -10 -21 -19 -33 -21 -18 -3 -21 1 -21 32 0 39 13 46 46 22z m-51 -65
c3 -5 1 -12 -5 -16 -5 -3 -10 1 -10 9 0 18 6 21 15 7z"/>
<path d="M550 695 l0 -105 63 0 c56 0 63 2 63 20 0 16 -7 20 -38 20 -34 0 -38
3 -38 25 0 22 4 25 35 25 28 0 35 4 35 20 0 16 -7 20 -35 20 -31 0 -35 3 -35
26 0 23 3 25 37 22 28 -2 37 1 39 15 2 15 -7 17 -62 17 l-64 0 0 -105z"/>
<path d="M710 695 c0 -100 1 -105 21 -105 19 0 20 5 17 80 -2 44 -1 80 2 80 3
0 23 -35 46 -78 37 -69 45 -77 73 -80 l31 -3 0 105 c0 99 -1 106 -20 106 -17
0 -19 -8 -22 -77 l-3 -78 -43 78 c-38 69 -46 77 -72 77 l-30 0 0 -105z m160
-65 c0 -5 -5 -10 -11 -10 -5 0 -7 5 -4 10 3 6 8 10 11 10 2 0 4 -4 4 -10z"/>
<path d="M1026 784 c-17 -16 -21 -51 -8 -70 4 -7 23 -21 42 -31 60 -34 46 -72
-20 -53 -29 8 -31 7 -28 -13 2 -18 10 -23 47 -25 102 -7 111 101 10 133 -23 8
-25 33 -3 42 8 3 26 1 39 -5 19 -9 25 -8 29 4 3 9 4 20 0 25 -9 15 -91 10
-108 -7z"/>
<path d="M1195 775 c-21 -20 -25 -34 -25 -80 0 -74 28 -105 95 -105 67 0 95
31 95 105 0 74 -28 105 -95 105 -35 0 -52 -6 -70 -25z m109 -27 c51 -72 -28
-168 -81 -100 -32 40 -3 122 42 122 13 0 31 -10 39 -22z"/>
<path d="M1400 720 c0 -73 3 -83 25 -105 31 -32 91 -34 123 -5 19 18 22 31 22
105 0 78 -2 85 -20 85 -18 0 -20 -7 -20 -74 0 -54 -4 -79 -16 -90 -19 -20 -24
-20 -53 0 -21 15 -22 22 -19 90 3 71 2 74 -19 74 -22 0 -23 -4 -23 -80z"/>
<path d="M1620 695 c0 -98 1 -105 20 -105 17 0 20 7 20 40 0 28 4 40 14 40 8
0 25 -18 37 -40 16 -29 29 -40 46 -40 29 0 29 2 -7 52 -30 40 -30 41 -10 55
28 19 26 67 -2 87 -13 9 -43 16 -70 16 l-48 0 0 -105z m85 61 c25 -18 13 -46
-20 -46 -21 0 -25 5 -25 30 0 33 15 38 45 16z m-45 -66 c0 -5 -4 -10 -10 -10
-5 0 -10 5 -10 10 0 6 5 10 10 10 6 0 10 -4 10 -10z"/>
<path d="M1825 775 c-21 -20 -25 -34 -25 -80 0 -46 4 -60 25 -81 21 -21 33
-25 73 -22 40 3 47 6 50 25 3 20 1 21 -29 13 -35 -10 -63 0 -73 26 -12 30 -6
72 13 95 17 22 22 23 50 12 27 -10 32 -9 41 7 12 22 -4 30 -61 30 -29 0 -47
-7 -64 -25z"/>
<path d="M1980 695 l0 -105 65 0 c58 0 65 2 65 20 0 17 -7 20 -40 20 -36 0
-40 3 -40 25 0 22 4 25 35 25 28 0 35 4 35 20 0 16 -7 20 -35 20 -31 0 -35 3
-35 26 0 25 2 26 40 21 35 -4 40 -2 40 14 0 17 -8 19 -65 19 l-65 0 0 -105z"/>
<path d="M351 444 c4 -76 7 -88 28 -105 27 -22 79 -25 107 -5 16 12 20 30 24
105 4 69 2 91 -7 91 -9 0 -13 -23 -13 -79 0 -89 -12 -111 -59 -111 -43 0 -51
16 -51 107 0 69 -3 83 -16 83 -14 0 -16 -12 -13 -86z"/>
<path d="M570 425 c0 -63 4 -105 10 -105 6 0 10 37 10 92 l0 93 57 -93 c77
-123 88 -122 88 13 0 80 -3 105 -13 105 -10 0 -13 -20 -10 -85 2 -47 1 -85 -2
-85 -3 1 -29 39 -58 85 -30 47 -60 85 -68 85 -11 0 -14 -22 -14 -105z"/>
<path d="M790 425 c0 -87 3 -105 15 -105 12 0 15 18 15 105 0 87 -3 105 -15
105 -12 0 -15 -18 -15 -105z"/>
<path d="M855 509 c29 -93 69 -189 78 -189 7 0 29 47 49 105 26 74 33 105 24
105 -7 0 -25 -36 -42 -84 -15 -47 -30 -83 -33 -80 -3 2 -17 39 -31 81 -15 42
-32 79 -39 81 -10 3 -11 -2 -6 -19z"/>
<path d="M1050 425 l0 -105 60 0 c33 0 60 4 60 10 0 6 -22 10 -50 10 l-50 0 0
40 0 40 45 0 c25 0 45 5 45 10 0 6 -20 10 -45 10 -45 0 -45 0 -45 35 l0 35 50
0 c28 0 50 5 50 10 0 6 -27 10 -60 10 l-60 0 0 -105z"/>
<path d="M1210 425 c0 -87 3 -105 15 -105 11 0 15 12 15 45 0 39 3 45 20 45
13 0 28 -12 38 -31 28 -50 38 -62 50 -58 7 3 1 21 -16 48 l-28 44 23 23 c47
47 13 94 -67 94 l-50 0 0 -105z m104 63 c16 -27 -4 -52 -45 -56 l-35 -3 4 41
c4 39 6 41 35 38 16 -2 35 -11 41 -20z"/>
<path d="M1394 505 c-15 -23 -15 -27 0 -50 9 -14 32 -31 51 -39 69 -29 53 -82
-23 -73 -29 3 -42 1 -39 -7 2 -6 24 -12 49 -14 54 -4 78 15 78 59 0 25 -7 32
-47 52 -38 18 -48 27 -48 47 0 23 4 25 44 26 65 1 66 24 2 24 -43 0 -53 -4
-67 -25z"/>
<path d="M1560 425 c0 -63 4 -105 10 -105 6 0 10 42 10 105 0 63 -4 105 -10
105 -6 0 -10 -42 -10 -105z"/>
<path d="M1610 520 c0 -5 16 -10 35 -10 l35 0 0 -95 c0 -69 3 -95 13 -95 9 0
11 24 9 95 l-3 95 35 0 c20 0 36 5 36 10 0 6 -33 10 -80 10 -47 0 -80 -4 -80
-10z"/>
<path d="M1780 523 c0 -3 14 -30 30 -60 21 -37 30 -66 30 -98 0 -33 4 -45 15
-45 11 0 15 12 15 44 0 32 10 61 34 105 25 43 31 61 21 61 -8 0 -26 -22 -40
-50 -14 -27 -27 -50 -30 -50 -3 0 -16 23 -30 50 -22 43 -45 65 -45 43z"/>
</g>
</svg>
